<?xml version="1.0" encoding="UTF-8"?><svg id="right_Image" xmlns="http://www.w3.org/2000/svg" viewBox="0 0 113.97 551"><path d="M34.43,59.45s-.07.36.21.43h36.08c.29-.07.2-.41.21-.43,1.15-1.18,2.31-2.93,3.65-3.88.12-.09.83-.07,1.07-.65-.3-1.66-1.87-2.39-2.58-3.88-.41-.85.95-.58,1.07-1.08h.43c.74.91,1.66,1.89,2.36,2.8,1.87,2.42,3.77,5.26,5.58,7.75l3.44,3.88c-.46.71-1.37.78-1.93,1.08-2.62,1.36-4.69,2.44-6.23,4.95-1.11,1.82-1.61,2.91-1.29,5.17.02.14.77.75.43,1.51-.1.12-1.21-.7-1.5-.86-2.09-1.16-2.7-1.64-4.08-3.66-.46-.68-.68-.41-.86-1.51-.03-.18.05-.37-.21-.43h-29.64c-.29.07-.19.42-.21.43-1.15.54-4.21.72-5.8,1.29-.64.23-1.33,1.18-2.36.86.06-.48-.09-1.07,0-1.51,1.86-9.07-1.22-17.97-6.01-25.42-.39-.51-2.5-2.74-2.58-3.02-.4-1.39,2.81-4.43,3.65-5.82.75.06,2.14-1.6,2.58-1.72.54-.16.96-.33,1.29-.43,1.34-.39,2.99-.21,4.3-.43.17-.03.39-.67,1.07-.43l-13.32-14.86c.23-.18.42-.5.64-.65,2.05-1.3,4.03-2.75,5.37-4.95.72-1.19.93-2,1.29-3.45.04-.17.4-.27.43-.43.29-1.65-.14-3.51-.86-4.95.64-.08,1.1,0,1.72.22,2.16.74,3.71,2.84,4.94,4.52h31.36c1.22-.56,2.59-.83,3.87-1.29s2.97-1.22,3.65-2.37c.06-.09-.06-.3,0-.43.08-.18.38-.27.43-.43.33-1.07-.79-1.44-1.29-2.15-.07-.09.07-.33,0-.43-.36-.53-.96-1.04-1.29-1.72-.41-.85.95-.58,1.07-1.08h.43c.32.38.78.69,1.07,1.08,2.08,2.75,3.79,6.33,6.01,9.05.48.73,3.77,3.96,3.87,4.31.05.18.05.68,0,.86-.05.16-2.07,2.17-2.36,2.37-1.13.75-4.39,2.24-5.58,2.58-1.63.46-3.74.12-5.15.86h-33.93c-1.51,2.27-3.83,4.17-5.8,6.25v.43c.63.27.73,1.12.86,1.29,1.32,1.8,3.59,3.53,4.94,5.39h29.21c.8-.73,2.44-.59,3.44-.86.16-.04.25-.37.43-.43.85-.31,2.83-1.32,3.22-1.94.23-.36.31-1.36.86-1.72v-.43l-2.58-3.45c.47-1.88,1.79-1.05,2.58,0,.06.09-.07.33,0,.43,2.05,2.95,4.04,6.02,6.01,8.62.96,1.26,2.37,2.66,3.44,3.88l.43,1.29c-.82.68-1.54,1.75-2.36,2.37-1.1.83-4.16,2.21-5.58,2.58-1.55.41-3.07.26-4.72.43-10.23,1.08-21.56-.22-31.79.86-1.65.17-3.18,0-4.72.43-.16.04-.25.37-.43.43-1,.36-1.69.61-2.36,1.51-.06.09.07.33,0,.43-.22.31-.69.57-.86.86-.06.1.06.31,0,.43-.14.28-.83,1.14-.86,1.29-.09.42-.08,1.71,0,2.15.11.62,1.16,2.37,1.29,3.02.1.51-.11,1.22,0,1.72.03.16.35.25.43.43.06.14-.05.33,0,.43.17.31.41.2.43.22Z" fill="#fff" stroke="#000" stroke-miterlimit="10"/><path d="M70.94,399.78c-10.65.21-21.34-.15-32,0-.29.07-.17.33-.21.43-.3.68-.85.97-1.29,1.51-1.3,1.59-1.79,2.47-3.65,3.66-1.65,1.06-.04,1.91.64,2.8,1.37,1.78,2.87,3.87,4.3,5.6.75.92,2.17,1.64,2.15,2.8h30.07c-.02-.68.4-1.39.86-1.94-.13-1.64,1.85-2.66,1.72-4.31-.47-.24-1.58-2.07-1.29-2.37l1.72-.43c-.2.93.83,1.28,1.29,1.94,2.84,4.12,5.29,7.32,9.66,10.12.34.22.76.66.64,1.08-.38.32-.69.79-1.07,1.08-2,1.52-4.46,3.96-5.37,6.25-.3.76-1.19,3.64-1.29,4.31-.11.73.08,1.61,0,2.37-.5.03-.82.07-1.29-.22-.57-.35-3.39-3.24-3.87-3.88-.07-.09.07-.33,0-.43-.5-.71-1.4-1.37-1.29-2.37h-39.3c-1.23.81-3.44,1.56-4.72,1.72-3.82.47-8.36-.17-11.6-1.72-2.35-.37-4.42-3.41-6.01-4.31-.2-.11-.56.08-.64,0s.11-.44,0-.65c-.41-.74-1.95-1.77-2.58-2.58-2.35-3.03-3.98-7.45-4.72-11.2-.16-.8-.79-2.73-.86-3.45-.34-3.72.18-7.62,1.72-10.77,1.12-2.44,2.54-4.68,3.87-6.89.24-.4,1.18-1.22,1.29-1.72.08-.39.08-1.77,0-2.15-.03-.15-.34-.24-.43-.43-.06-.13.06-.34,0-.43-.84-1.41-2.55-1.47-3.44-2.8h6.23c.14,0,.25.38.43.43.49.14,1.17.14,1.72.43l2.79,2.37c-.18.62.61.86.86,1.29.11.19.84,1.63.86,1.72.11.5-.09,1.19,0,1.72.03.16.43.29.43.43s-.4.27-.43.43c-.11.66.13,1.54,0,2.15-.03.16-.36.25-.43.43-.59,1.48-.89,1.5-1.72,2.58-2.81,3.67-7.1,5.49-9.45,9.48-.17.29-.81,1.11-.86,1.29-.1.36.08.9,0,1.29-.04.17-.41.27-.43.43-.08.53-.08,1.62,0,2.15.02.16.41.27.43.43.1.67-.12,1.51,0,2.15.03.16.38.26.43.43.08.28-.09.62,0,.86.54,1.47,3.15,4.37,4.51,5.39.21.16,2.02,1.26,2.15,1.29.37.1.94-.11,1.29,0,.17.05.26.39.43.43.27.07.59-.07.86,0,.17.04.27.4.43.43.49.09,1.64.08,2.15,0,.16-.02.26-.4.43-.43.86-.17,1.75-.18,2.58-.43,1.5-.45,3.21-1.33,4.72-1.72,1.34-.35,5.34-1.29,6.44-1.29h8.38l-15.89-17.88,1.07-1.08c1.89-.79,3.84-2.71,4.94-4.52.72-1.19.93-2,1.29-3.45.04-.17.4-.27.43-.43.11-.63.1-2.36,0-3.02-.02-.16-.39-.26-.43-.43-.14-.65.18-1.24-.43-1.94,1.39-.26,2.17,1.02,3.22,1.29,1.3,1.25,2.52,2.47,3.44,3.88h30.07c.4-.73,1.15-.27,1.72-.43.24-.07,1.06-.34,1.29-.43.65-.26,1.28-1.05,1.72-1.29.2-.11.56.08.64,0s-.11-.44,0-.65c.17-.3.7-.56.86-.86.61-1.11.61-1.9.86-3.02.04-.17.4-.27.43-.43.1-.56-.28-1.59.21-1.94l6.44,6.46c1.23.78,2.72,1.71,3.87,2.58.83.63,1.32,1.29,1.07,2.37-.04.16-.36.25-.43.43-.75,2.07-2.23,4.58-4.08,5.82-.25.17-2.21,1.16-2.58,1.29-.25.09-.6-.09-.86,0-.17.06-.26.38-.43.43-.35.1-.89-.08-1.29,0-.17.03-.27.41-.43.43-1.41.21-3.42-.03-4.94,0Z" fill="#fff" stroke="#000" stroke-miterlimit="10"/><path d="M69.22,193s.33.08.43-.22c.09-.27-.1-.63,0-.86.15-.34.69-1.46.86-1.72.57-.87,4.72-4.4,4.72-4.74-.48-.21-.36-.75-.43-.86-.44-.69-1.58-1.43-2.15-2.15-.47-.59-1.25-2.01-1.72-2.58-1.07-1.29-2.29-2.31-3.22-3.66h-30.07c-.18.23-.5.42-.64.65-.3.47-.56,1.63-.86,2.15-.86,1.52-2.41,3.8-3.44,5.17-.29.38-.76.7-1.07,1.08-.19,0-.92-1.22-1.07-1.51-.46-.86-.81-2.19-1.29-3.02-1.53-2.63-3.93-4.89-5.58-7.32-.36-.53-1.08-.69-.86-1.51,1.06.14,1.56-1.15,2.36-1.72.09-.06.32.07.43,0,.2-.13,2.73-3.44,2.79-3.66.08-.28-.1-.65,0-.86.12-.27.83-1.14.86-1.29.14-.65.12-3.6,0-4.31-.03-.17-.67-.39-.43-1.08.73.1,1.69-.14,2.36,0,.84.18,3.87,2.8,4.51,3.66.07.09-.07.33,0,.43.5.71,1.4,1.37,1.29,2.37h60.78c.48-.77,1.41-.27,2.15-.43.86-.19,2.99-1.92,3.87-2.58.37-.29.41-.59,1.07-.43-.32.79.36,1.26.43,1.51,1.14,4.32,3.36,7.89,5.58,11.63.92,1.11,2.38,2.56,3.01,3.88.24.51-.12.83-.64.65-.37-.65-.87-.31-1.29-.43-.49-.14-1.67-.74-2.15-.86-5.26-1.35-11.51-1.95-17.18-2.15-7.35-.26-14.77.19-22.12,0l15.03,18.31v.43c-.64.47-1.3,1.04-1.93,1.51-.1.07-.34-.07-.43,0-.66.5-3.74,3.52-4.08,4.09-.06.09.06.3,0,.43-.08.18-.36.26-.43.43-.09.23.08.58,0,.86-.05.18-.4.27-.43.43-.12.7-.12,3.18,0,3.88.01.07.3.84.43,1.29.1.36,1.15.67.86,1.51-.64.08-1.1,0-1.72-.22-1.64-.56-5.51-2.63-6.44-4.31-.11-.2.08-.57,0-.65h-35.87c-1.13.64-2.93.58-4.3.86-.39.35-2.54,1.54-2.79,1.29-.24-.69.4-.91.43-1.08.32-1.85.83-6.34.43-8.19-.1-.46-1.19-1.37-.86-2.15-.83-.63-1.03-1.8-1.93-2.37-.36-.23-1.36-.31-1.72-.86l-2.15.43c-3.73,2.29-6,5.24-10.31,6.46-.17.05-.27.4-.43.43-.81.15-3.44.13-4.3,0-.16-.02-.26-.39-.43-.43-.39-.09-.93.1-1.29,0-.54-.15-1.24-.96-1.72-1.29-.1-.07-.34.07-.43,0-1.13-.85-2.76-2.84-3.22-4.09-.08-.23-.42-1.22-.43-1.29-.11-.58.07-1.32,0-1.94.8.26,1.28,1.29,1.93,1.72.69.46,1.95.61,2.58.86.25.1,1.13.83,1.29.86.89.19,4.55.13,5.58,0,.16-.02.26-.4.43-.43,1.62-.29,2.36-.42,3.87-.86,2.11-.62,4.04-1.23,6.01-1.72.17-.04.27-.4.43-.43.53-.09,2.05-.09,2.58,0,.16.03.25.38.43.43.28.08.62-.09.86,0,1.38.51,2.95,2.14,4.3,2.58.29.1.85-.1,1.07,0,.02.01-.08.36.21.43h37.37c.29-.07.2-.41.21-.43Z" fill="#fff" stroke="#000" stroke-miterlimit="10"/><path d="M32.28,294.67c1.84,2.13,4.44,3.68,6.01,6.25.33.53.58,1.67.86,2.15.18.31.41.2.43.22s-.07.36.21.43h26.2c.29-.07.19-.42.21-.43.28-.13,1.07.1,1.5,0,.16-.04.26-.38.43-.43.47-.14,1.23-.14,1.72-.43.3-.18,1.72-1.62,1.93-1.94.77-1.17,1.1-2.98,1.29-4.31.08-.58.25-.95.86-1.08-.21.83.51,1.01.86,1.51,2.62,3.72,5.8,7.24,9.66,9.69.5.31.67,1.09,1.5.86.16.66-.14.7-.43,1.08-2.33,3.06-4.63,4.42-8.38,5.39-.53.14-2.15.81-2.58.86-1.8.22-3.95-.16-5.8,0l17.18,20.89c.04,1.25-1.09.89-1.5,1.08-.52.23-2.11,1.34-2.58,1.72-.61.49-1.93,1.77-2.36,2.37-.06.09.07.33,0,.43-.2.29-.8.66-.86.86-.08.27.08.61,0,.86-.06.18-.4.27-.43.43-.15.86.2,4.29,0,4.52l-2.79-1.29-3.44-3.45c-11.02.18-22.35-.42-33.07.43-1.9.98-4.45,1.02-6.44,1.72-.25.09-.37.66-1.07.43v-7.97c0-.25-.76-2.54-.86-3.02-.86-4.1-2.59-9-5.15-12.49-.29-.4-1.72-1.57-1.72-1.72.25-.57.95-.56,1.07-.65,1.23-.87,1.83-2.24,2.79-3.23l.43-1.94h-14.39c-.91,0-4.88.84-6.01,1.29-.29.11-.98.62-1.29.86-1.03-.61-.47-1.5-.64-2.37-.71-3.43-3.69-8.15-5.15-11.63-.16-.37-.67-1.7-.43-1.94.04-.04.86-.06,1.07,0,.45.12,1.61,1.08,2.15,1.29,2.18.87,4.31,1.22,6.66,1.29.28.74,1.69.43,2.36.43,5.86.04,12.25.31,18.04,0,.52-.03.97.23,1.07-.43.08-.53.09-1.85,0-2.37-.01-.07-.35-1.08-.43-1.29-.77-2.08-2.8-3.78-4.51-4.95-.58-.4-1.32-.58-1.5-1.29,1.13.14,2.58-.19,3.65,0,.19.03,1.41.75,1.72.86.7.25,1.07.49,1.93.43ZM70.08,331.72c-.22-.82.49-.98.86-1.51.07-.1-.07-.34,0-.43.53-.72,3.87-3.6,3.87-3.88-.63-.28-.73-1.12-.86-1.29-.54-.75-1.55-1.4-2.15-2.15-1.73-2.16-3.47-4.66-5.15-6.89-.29-.38-.76-.7-1.07-1.08h-25.13c.23.71-.34.82-.43,1.08-1.76,4.88-2.44,7.21-6.66,10.55-.84.66-1.47,1.4-2.36,1.94.65.35.3.89.43,1.29.11.35.29.92.43,1.29.09.25.66.37.43,1.08h37.8Z" fill="#fff" stroke="#000" stroke-miterlimit="10"/><path d="M66.64,504.04c.74-.35,3.04-.56,4.08-.86.22-.06.56-.7.86-.86.2-.11.56.08.64,0s-.11-.44,0-.65c.16-.3.68-.56.86-.86.59-.98.61-2.34.86-3.45.04-.17.4-.27.43-.43.1-.56-.28-1.59.21-1.94.32.38.77.69,1.07,1.08,2.59,3.32,5.58,6.32,9.24,8.4.33.19.38.63,1.07.43-.08.61.12,1.39,0,1.94-.03.16-.36.25-.43.43-.84,2.13-1.78,3.98-3.65,5.39-.09.07-.33-.07-.43,0-.52.37-1.07,1.03-1.72,1.29-.23.09-.58-.08-.86,0-.17.05-.27.4-.43.43-1.61.33-3.78.13-5.15.86h-34.36c-.57.25-.56.95-.64,1.08-1.2,1.71-2.5,2.89-4.08,4.09-2.36,1.8-.25,2.54,1.07,4.09,1.42,1.67,2.83,3.98,4.3,5.6.54.59,1.07,1.04,1.72,1.51.02.01-.08.36.21.43h29.21c.29-.07.17-.33.21-.43.16-.36.39-.55.43-.65.39-1.06.67-2.31,1.29-3.45.3-.55,1.17-.67.86-1.72-.13-.46-1.68-2.01-1.29-2.37l1.5-.43c.45.64,1.07,1.33,1.5,1.94,1.04,1.48,2.23,3.35,3.44,4.74,2.08,2.38,4.43,4.15,6.87,6.03.26.86-.97.99-1.07,1.08-1.99,1.67-4.4,4.44-5.37,6.68-.38.88-1.17,3.5-1.29,4.31-.11.73.07,1.61,0,2.37-.83.21-1.01-.52-1.5-.86-2.29-1.57-2.69-2.31-4.08-4.52-.33-.52-1.09-.68-.86-1.51h-31.57c-.34.66-.95.29-1.29.43-.17.07-.25.35-.43.43-.13.06-.34-.06-.43,0-.21.13-.93.85-1.07,1.08-.06.1.07.32,0,.43-.19.33-.76,1.02-.86,1.29-.26.71-.33,1.79-.43,2.58-.08.68.09,1.03-.64,1.51-.32-.38-.79-.69-1.07-1.08-2.76-3.67-5.61-8.16-10.09-10.12-.13-.5-1.48-.22-1.07-1.08.12-.26.65-.56.86-.86.97-1.41,2.09-2.77,3.65-3.66,1.44-.82,2.78-.97,4.3-1.29,2.5-.52,4.06-.74,6.87-.86,1.57-.07.14-.99-.21-1.51-2.92-4.22-7.61-8.49-11.17-12.49-.82-.92-2.2-2.38-3.01-3.45-.28-.38-.59-.41-.43-1.08l1.5-.43c1.79-1.52,3.64-2.9,4.51-4.95,1.88-2.67,2.39-5.88.86-8.83,1.63-.35,2.46.86,3.65,1.29.95.62,1.43,1.71,1.93,2.37.3.39.62.52.86,1.08.05.1-.08.36.21.43h29.64c.29-.07.19-.42.21-.43Z" fill="#fff" stroke="#000" stroke-miterlimit="10"/><path d="M37.86,446.74s-.07.36.21.43c9.02-.05,18.04.07,27.06,0,.67,0,2.08.31,2.36-.43,3.19-.12,4.29-.54,7.09-1.72.62-.26,1.23-.54,1.93-.43.13,2.61-.17,5.37,0,7.97.16,2.32.93,5.1,1.29,7.32.11.66-.13,1.54,0,2.15.03.16.81,1.1.86,1.29,1.46,5.38,3.09,9.12,6.01,13.79.31.49,1,1.05,1.29,1.72,0,.39-3.02,1.75-3.65,1.94l-3.65,3.66c-.29.55-.29,1.23-.43,1.72-.05.18-.4.27-.43.43-.15.86.2,4.29,0,4.52-.52-.15-1.06-.61-1.5-.86-1.81-1-3.2-1.95-4.3-3.88h-31.79c-2.7.71-5.43,1.21-8.16,2.15-.25.09-.37.66-1.07.43.07-.76-.1-1.63,0-2.37.02-.16.41-.28.43-.43.32-3.31.2-9.48-.43-12.49-1.1-5.31-4.07-10.97-7.3-15.51-.33-.46-1.01-.85-1.29-1.29-.07-.12.05-.65-.43-.86.37-.27.72-.88,1.07-1.08.2-.11.56.08.64,0s-.11-.44,0-.65c.44-.79,2.02-1.74,2.58-2.58.12-.18.31-1.09.43-1.29.72-1.21.85-1.04,1.29-2.58.05-.17.4-.27.43-.43.1-.51-.09-1.2,0-1.72.03-.17.41-.27.43-.43.19-1.54-.2-2.33-.43-3.45-.09-.44.06-1.03,0-1.51.48.06,1.06-.09,1.5,0,.91.19,5.11,2.76,5.8,3.66.54.71,1.21,1.84,1.72,2.58.21.31.41.2.43.22ZM38.72,458.37c-.33.83-.86,1.59-1.29,2.37-.06.11.06.32,0,.43-1.11,1.96-3.31,4.67-5.37,5.82-.27.15-1.03-.3-.64,1.08.05.17.4.27.43.43.37,2.02.95,3.5,1.29,5.17.09.44-.06,1.03,0,1.51h36.94c.04-.35-.08-.79,0-1.08.48-1.77,4.41-6.95,6.23-7.97.27-.15,1.03.3.64-1.08-.05-.17-.38-.26-.43-.43-.4-1.31-1.04-3.5-1.29-4.74-.09-.44.06-1.03,0-1.51-.28-.74-1.69-.43-2.36-.43-10.59-.08-21.2-.07-31.79,0-.67,0-2.08-.31-2.36.43Z" fill="#fff" stroke="#000" stroke-miterlimit="10"/><path d="M37,88.31s-.07.36.21.43c9.45-.05,18.9.07,28.35,0,.67,0,2.08.31,2.36-.43,3.11-.12,5.53-.73,7.95-2.58.37-.29.41-.59,1.07-.43.15,2.02-.2,4.27,0,6.25.02.16.41.27.43.43.35,2.32.38,5.1.86,7.32.03.15.83,1.15.86,1.29.11.51-.11,1.22,0,1.72.08.36,1.07,1.65,1.29,2.15.98,2.27,1.92,4.83,3.44,6.89.68.92,2.05,1.38,1.72,2.8-.71-.23-.82.34-1.07.43-5.97,2.16-11.71,4.6-16.75,8.62l-3.44,3.02c-.42-.63-1.12-1.36-1.5-1.94-4.82-7.32-9.85-14.68-14.6-21.97-.4-.61-1.39-1.56-1.72-2.15-.11-.2.08-.57,0-.65-.28-.28-7.47-.13-7.95,0-.98.27-.51,2.01-.64,2.8-.48,2.91-2.32,8.32-3.87,11.2-.25.47-1.05,1.09-1.29,1.72-.33,1.13,1.12,1.76,1.72,2.58.06.09-.07.33,0,.43.18.27.86.74.86.86,0,.35-1.82,1.72-2.15.86l-11.6-13.35c.55-.86,1.64-1.82,2.15-2.58,1.51-2.26,2.58-4.76,3.44-7.32.33-1,1.16-2.97,1.29-3.88.34-2.34.07-7.34-.43-9.48-.05-.2-.66-.38-.43-1.08.76.08,1.64-.11,2.36,0,.32.05,1.7.7,2.15.86,1.3.47,2.87,1.62,3.65,2.8.3.45.57,1.65.86,2.15.18.31.41.2.43.22ZM49.03,99.52c.12,1.51,1.43,2.55,2.15,3.66,2.02,3.12,4.18,6.91,6.44,9.91.29.38.76.7,1.07,1.08h.43l17.61-10.34c.65-.43.82-1.18.64-1.94-.04-.17-.39-.26-.43-.43-.1-.41.1-1.94-.64-1.94h-27.28Z" fill="#fff" stroke="#000" stroke-miterlimit="10"/><path d="M37,223.16s-.07.36.21.43c9.45-.05,18.9.07,28.35,0,.67,0,2.08.31,2.36-.43,3.11-.12,5.53-.73,7.95-2.58.37-.29.41-.59,1.07-.43.12,1.89-.17,3.95,0,5.82.14,1.52.57,3.89.86,5.6.73,4.34,3.19,10.82,6.01,14.65.68.92,2.05,1.38,1.72,2.8-.71-.23-.82.34-1.07.43-5.97,2.16-11.71,4.6-16.75,8.62l-3.44,3.02c-.42-.63-1.12-1.36-1.5-1.94-4.82-7.32-9.85-14.68-14.6-21.97-.4-.61-1.39-1.56-1.72-2.15-.11-.2.08-.57,0-.65-.28-.28-7.47-.13-7.95,0-.98.27-.51,2.01-.64,2.8-.48,2.91-2.32,8.32-3.87,11.2-.38.71-1.59,1.47-1.29,2.58,1.14.89,1.66,2.04,2.58,3.02l-1.5,1.08-12.24-13.57c.55-.86,1.64-1.82,2.15-2.58,1.51-2.26,2.58-4.76,3.44-7.32.33-1,1.16-2.97,1.29-3.88.34-2.34.07-7.34-.43-9.48-.05-.2-.66-.38-.43-1.08.76.08,1.64-.11,2.36,0,.32.05,1.7.7,2.15.86,1.3.47,2.87,1.62,3.65,2.8.3.45.57,1.65.86,2.15.18.31.41.2.43.22ZM49.03,234.36c.12,1.51,1.43,2.55,2.15,3.66,2.02,3.12,4.18,6.91,6.44,9.91.29.38.76.7,1.07,1.08h.43l17.61-10.34c.65-.43.82-1.18.64-1.94-.04-.17-.39-.26-.43-.43-.1-.41.1-1.94-.64-1.94h-27.28Z" fill="#fff" stroke="#000" stroke-miterlimit="10"/><path d="M32.28,294.67c-2.42-2.81-4.41-6.1-6.87-8.83-1.37-1.52-2.82-2.65-4.3-3.88.21-.55.94-.55,1.07-.65.87-.62,1.6-1.35,1.93-1.94.6-1.08,2.39-2.32,3.01-3.88.18-.45.29-1.61.43-2.15.04-.17.4-.27.43-.43.33-1.86-.24-4.49,0-6.46l-.43-1.94,2.36.86c.36.85,2.61,1.54,2.79,1.72.08.08-.11.44,0,.65.37.66,1.68,1.79,2.15,2.58.08.14.31.79.43,1.08.05.11-.08.36.21.43,18.61-.1,37.23.14,55.84,0,.67,0,2.08.31,2.36-.43.89-.09,1.93.13,2.79,0,.16-.02.26-.39.43-.43.39-.09.93.1,1.29,0,.14-.04,2.35-1.14,2.58-1.29.49-.32,2.27-2.71,2.79-2.15.07.62-.11,1.36,0,1.94.19,1.04.94,2.78,1.29,3.88.89,2.8,3.16,7.04,5.15,9.48,1.06,1.3,2.87,2.22,3.01,4.09-.86.05-1.21.13-1.93-.43-.85-.65-3.29-2.31-4.3-2.58-3.27-.89-6.6-.62-9.88-1.29h-59.06c-.17,1.39-1.34,2.63-1.72,4.09l-3.87,3.88c-.17.57,1.37,2.34,1.72,3.02-.64.68-.79,1.02-1.72,1.08Z" fill="#fff" stroke="#000" stroke-miterlimit="10"/><path d="M93.7,271.4c-.28.74-1.69.43-2.36.43-18.61.14-37.23-.1-55.84,0-.29-.07-.17-.33-.21-.43h58.42Z" fill="#fff" stroke="#000" stroke-miterlimit="10"/><path d="M69.22,193s.07.36-.21.43H31.63c-.29-.07-.19-.42-.21-.43h37.8Z" fill="#fff" stroke="#000" stroke-miterlimit="10"/><path d="M70.94,59.45s.07.37-.21.43h-36.08c-.29-.07-.2-.41-.21-.43h36.51Z" fill="#fff" stroke="#000" stroke-miterlimit="10"/><path d="M70.94,399.78c-.28.74-1.69.43-2.36.43-9.95.08-19.91-.06-29.85,0,.05-.1-.08-.36.21-.43,10.66-.15,21.35.21,32,0Z" fill="#fff" stroke="#000" stroke-miterlimit="10"/><path d="M67.93,88.31c-.28.74-1.69.43-2.36.43-9.45.07-18.9-.05-28.35,0-.29-.07-.2-.41-.21-.43,10.25-.29,20.7.4,30.93,0Z" fill="#fff" stroke="#000" stroke-miterlimit="10"/><path d="M67.93,223.16c-.28.74-1.69.43-2.36.43-9.45.07-18.9-.05-28.35,0-.29-.07-.2-.41-.21-.43,10.25-.29,20.7.4,30.93,0Z" fill="#fff" stroke="#000" stroke-miterlimit="10"/><path d="M70.51,71.08h-30.07s-.08-.36.21-.43h29.64c.26.06.18.25.21.43Z" fill="#fff" stroke="#000" stroke-miterlimit="10"/><path d="M66.64,504.04s.08.36-.21.43h-29.64c-.29-.07-.17-.33-.21-.43h30.07Z" fill="#fff" stroke="#000" stroke-miterlimit="10"/><path d="M67.5,446.74c-.28.74-1.69.43-2.36.43-9.02.07-18.04-.05-27.06,0-.29-.07-.2-.41-.21-.43,9.82-.28,19.83.38,29.64,0Z" fill="#fff" stroke="#000" stroke-miterlimit="10"/><path d="M70.94,531.61c-.05.1.08.36-.21.43h-29.21c-.29-.07-.2-.42-.21-.43h29.64Z" fill="#fff" stroke="#000" stroke-miterlimit="10"/><path d="M66.21,303.28s.08.36-.21.43h-26.2c-.29-.07-.2-.41-.21-.43h26.63Z" fill="#fff" stroke="#000" stroke-miterlimit="10"/><path d="M31.42,303.28c-.1.66-.55.4-1.07.43-5.79.31-12.19.04-18.04,0-.67,0-2.08.31-2.36-.43,7.14.23,14.33-.17,21.48,0Z" fill="#fff" stroke="#000" stroke-miterlimit="10"/><path d="M75.23,458.37h-36.51c.28-.74,1.69-.43,2.36-.43,10.59-.07,21.2-.08,31.79,0,.67,0,2.08-.31,2.36.43Z" fill="#fff" stroke="#000" stroke-miterlimit="10"/></svg>