<?xml version="1.0" encoding="UTF-8"?><svg id="Layer_1" xmlns="http://www.w3.org/2000/svg" viewBox="0 0 73.61 73.59"><path d="M7.27,58.63l-1.04-1.56c-.64-.96-.97-1.95-.07-2.55.66-.44,1.21-.03,1.59.42l.23-.15-.39-.59c-.21-.31-.15-.6.16-.81l1.29-.86.61.92-1.42.95,1.05,1.58,1.42-.95.61.92-4.03,2.69ZM8.04,55.86c-.36-.54-.59-.88-1.09-.54-.51.34-.28.68.08,1.22l.43.65,1.01-.68-.43-.65Z" fill="#f40"/><path d="M4.96,52.28c-.48-.97-.24-1.93.71-2.39l.31-.15,1.16,2.36c.36-.18.48-.56.21-1.12-.17-.35-.42-.54-.69-.49l-.49-.99c.48-.16,1.44,0,1.97,1.08.59,1.2.08,2.13-.8,2.56-.99.49-1.91.11-2.39-.86ZM5.88,50.93c-.23.12-.38.4-.11.95.27.55.59.6.82.48l-.71-1.44Z" fill="#f40"/><path d="M4.83,48.18l-.5-.98c-.27.09-.36.36-.2.8.14.42.4.59.7.49l.34.98c-.83.29-1.56-.25-1.88-1.17-.31-.9-.15-1.85.93-2.22l.92-.32-.16-.47.91-.31.25.72c.11.31,0,.55-.32.66l-.07.02-.45-.03.09.26c.59-.07,1.16.09,1.48,1.01.35,1.02-.21,1.41-.55,1.53-.57.2-1.01-.03-1.49-.96ZM5.88,47.73c-.2-.57-.57-.87-.97-.73l.41.8c.15.3.25.44.44.37.19-.06.18-.27.12-.44Z" fill="#f40"/><path d="M5.3,42.13l-.21.04-.65-.08.05.27c.49.08.98.32,1.15,1.16.2.98-.51,1.64-1.47,1.83-.96.2-1.86-.13-2.06-1.11-.17-.84.19-1.25.61-1.52l-.06-.27-.56.33-1.76.36-.22-1.08,4.95-1.01.22,1.08ZM2.96,43.54c.12.58.43.85,1,.73.57-.12.76-.49.64-1.07-.12-.58-.44-.85-1.01-.73s-.75.49-.64,1.07Z" fill="#f40"/><path d="M1.29,36.84l3.36,1.36,1.07-.07c.38-.03.6.17.62.55l.07,1.7-.96.07-.06-1.19-.66.05-3.15,1.81-.08-1.23,1.85-.89.55-.04-.02-.27-.55.04-1.96-.62-.09-1.24Z" fill="#f40"/><path d="M1.48,29.96l-.19,1.57,3.85.47-.13,1.09-3.85-.47-.19,1.58-.95-.12.52-4.24.96.12Z" fill="#f40"/><path d="M2.2,28.5c.24-1.06,1.01-1.77,2.19-1.5,1.19.27,1.57,1.25,1.32,2.31-.25,1.06-1.02,1.78-2.2,1.5-1.18-.27-1.56-1.25-1.32-2.31ZM4.77,29.1c.12-.5-.06-.89-.63-1.02-.56-.13-.89.14-1.01.64-.12.51.06.9.62,1.03.57.13.9-.14,1.02-.65Z" fill="#f40"/><path d="M4.93,19.94l-.65,1.44,3.54,1.59-.45,1-3.54-1.59-.65,1.45-.88-.39,1.74-3.89.88.39Z" fill="#f40"/><path d="M7.7,18.61l-1.11-.65.55-.95,3,1.75-.55.95-.36-.21-.43-.49-.14.24c.47.43.67,1.05.29,1.69-.45.77-1.23.93-2.15.39l-1.62-.95.55-.95,1.47.86c.55.32.85.28,1.11-.18.3-.52.23-1.01-.62-1.51Z" fill="#f40"/><path d="M8,16.72c-.3-.23-.34-.52-.11-.82l1.4-1.8.77.57-1.09,1.4,2.05,1.52-.66.88-2.37-1.76Z" fill="#f40"/><path d="M12.02,14.33l.94.88-.75.8-2.53-2.38.75-.8.31.29.31.57.19-.2c-.36-.52-.41-1.17.1-1.71.61-.65,1.41-.63,2.19.1l1.37,1.29-.75.8-1.24-1.17c-.46-.43-.76-.46-1.13-.08-.41.44-.45.94.26,1.61Z" fill="#f40"/><path d="M17.68,6.11l-1.28.92,2.26,3.16-.89.64-2.26-3.16-1.29.92-.56-.78,3.47-2.48.56.78Z" fill="#f40"/><path d="M22.79,5.63l.88,1.66-.97.51-.79-1.51c-.29-.56-.57-.68-1.04-.44-.53.28-.73.74-.27,1.6l.6,1.14-.97.51-2.35-4.46.97-.51.93,1.77.11.64.24-.13c-.17-.61-.01-1.24.64-1.59.78-.41,1.53-.14,2.03.81Z" fill="#f40"/><path d="M24.31,3.26c1.01-.38,1.94-.04,2.31.94l.12.32-2.47.92c.14.37.51.54,1.09.32.36-.14.58-.37.56-.63l1.03-.39c.11.49-.15,1.43-1.27,1.86-1.25.47-2.13-.13-2.47-1.05-.39-1.03.08-1.91,1.1-2.29ZM25.56,4.3c-.09-.24-.36-.42-.94-.21-.57.21-.66.52-.56.77l1.5-.56Z" fill="#f40"/><path d="M31.77,5c-1.72.28-2.49-.32-2.68-1.53l1.09-.18c.12.73.53.9,1.48.75.7-.11.9-.32.86-.57-.06-.35-.67-.41-1.41-.53-1.07-.17-1.93-.31-2.09-1.25-.13-.81.44-1.37,1.67-1.57,1.47-.24,2.25.4,2.4,1.35l-1.09.18c-.1-.58-.57-.67-1.16-.58-.49.08-.78.24-.74.48.04.22.17.28.97.41.93.15,2.34.31,2.51,1.31.13.82-.35,1.48-1.82,1.72Z" fill="#f40"/><path d="M34.79,1.03l.4,3.2h.27s.32-3.18.32-3.18l2.29.04.22,3.2h.27s.5-3.18.5-3.18l1.04.02-.54,3.46-2.29-.04-.22-3.2h-.28s-.32,3.18-.32,3.18l-2.29-.04-.43-3.48,1.05.02Z" fill="#f40"/><path d="M40.24,3.72l.97.14.23-1.57-.84-.08.14-.95,1.3.12c.38.04.56.28.51.66l-.29,1.98.97.14-.14.95-2.99-.44.14-.95ZM41.51.46c.05-.35.32-.51.72-.45.4.06.62.29.57.64-.05.35-.33.51-.73.45-.4-.06-.61-.29-.56-.64Z" fill="#f40"/><path d="M46.01,4.84l-.22.94-1.76-.35c-.37-.07-.52-.34-.43-.7l.46-1.94-.8-.19.22-.94.8.19.15-.63,1.15-.08-.23.97,1.11.27-.22.94-1.11-.27-.38,1.57,1.26.23Z" fill="#f40"/><path d="M48.85,3.08c.89.32,1.53,1.1,1.25,2.05l-1.04-.37c.07-.3-.12-.62-.54-.77-.49-.18-.85.02-1.03.52-.18.5-.03.89.46,1.06.41.15.76.02.9-.25l1.04.37c-.38.92-1.37,1.11-2.26.79-1.04-.37-1.57-1.25-1.18-2.34.39-1.09,1.35-1.43,2.39-1.06Z" fill="#f40"/><path d="M53.92,7.21l-.85,1.67-.98-.5.77-1.52c.29-.56.23-.86-.24-1.1-.53-.27-1.03-.17-1.47.7l-.58,1.15-.98-.5,2.29-4.51.98.5-.91,1.79-.46.46.25.12c.4-.49,1.01-.73,1.67-.39.79.4,1,1.17.52,2.13Z" fill="#f40"/><path d="M54.5,9.02c.23-.35.65-.46,1.04-.2.38.25.45.7.21,1.05-.24.36-.68.46-1.06.21-.39-.26-.44-.69-.19-1.05ZM57.67,5.82c.89.6.85,1.29.56,1.72-.62.91-1.87.41-2.84-.11l-.13.19.54.14,1.3.88-.38.57-1.96-1.32.76-1.13c.82.53,1.68.84,2.02.34.18-.26.03-.52-.26-.72-.47-.32-.8-.23-1.06.16l-.68-.46c.43-.64,1.18-.91,2.14-.26Z" fill="#f40"/><path d="M60.8,12.21l3.36,1.67-.4.72-2.61-1.4,1.21,2.68-.76.33-1.4-3.45.61-.55Z" fill="#f40"/><path d="M68.25,16.4l-6.29,1.57-.2-.81,6.29-1.57.2.81Z" fill="#f40"/><path d="M64.37,20.17l.57-.6,2.12,2.04-.44-2.94.81-.14.44,3.73-.73.39-2.78-2.49Z" fill="#f40"/><path d="M67.95,29.42c-.39-1.7.15-2.5,1.35-2.78l.25,1.07c-.72.17-.87.58-.65,1.52.16.69.37.88.63.82.34-.08.36-.69.44-1.44.1-1.08.18-1.95,1.11-2.16.8-.19,1.39.35,1.68,1.57.34,1.45-.25,2.27-1.19,2.49l-.25-1.07c.58-.13.63-.61.5-1.2-.11-.48-.29-.76-.53-.7-.21.05-.27.18-.35,1-.09.94-.16,2.36-1.14,2.59-.81.19-1.5-.25-1.84-1.71Z" fill="#f40"/><path d="M72.09,32.17l-3.17.65.02.27,3.21.07.14,2.29-3.18.47.02.27,3.22.25.06,1.04-3.5-.27-.14-2.29,3.18-.47-.02-.27-3.21-.07-.14-2.29,3.44-.7.07,1.05Z" fill="#f40"/><path d="M69.78,37.79l-.08.98,1.58.13.03-.85.96.08-.04,1.31c0,.39-.24.58-.62.55l-1.99-.16-.08.98-.96-.08.24-3.01.96.08ZM73.11,38.83c.35.03.53.28.5.69s-.25.64-.6.61c-.36-.03-.53-.3-.5-.7s.24-.63.6-.6Z" fill="#f40"/><path d="M69.04,43.63l-.95-.16.23-1.78c.05-.37.3-.54.67-.48l1.96.34.14-.81.95.16-.14.81.64.11.15,1.14-.98-.17-.19,1.12-.95-.16.19-1.12-1.59-.27-.15,1.27Z" fill="#f40"/><path d="M70.98,46.35c-.26.91-1,1.6-1.96,1.38l.3-1.06c.31.05.61-.16.73-.58.14-.5-.08-.85-.59-1-.52-.15-.89.03-1.03.53-.12.42.03.76.31.88l-.3,1.06c-.94-.32-1.2-1.29-.93-2.21.3-1.06,1.14-1.65,2.26-1.33,1.11.32,1.51,1.26,1.21,2.32Z" fill="#f40"/><path d="M67.19,51.68l-1.72-.74.43-1.01,1.57.67c.58.25.88.17,1.08-.31.24-.55.1-1.03-.8-1.42l-1.18-.51.43-1.01,4.64,1.99-.43,1.01-1.84-.79-.49-.43-.11.25c.51.37.79.96.5,1.64-.35.81-1.1,1.08-2.09.65Z" fill="#f40"/><path d="M66.99,57.79c-.78,1.11-1.9,1.41-2.96.84l.63-.9c.58.28,1.15.06,1.53-.48.49-.69.37-1.45-.44-2.02-.82-.58-1.57-.43-2.06.26-.38.54-.39,1.15.07,1.61l-.63.9c-.9-.81-.99-1.97-.21-3.07.89-1.26,2.31-1.41,3.47-.6,1.15.81,1.49,2.21.6,3.46Z" fill="#f40"/><path d="M62.04,59.39l-.64.9c.21.19.48.15.81-.2.3-.32.33-.63.1-.85l.71-.75c.64.6.51,1.5-.16,2.21-.65.7-1.56,1-2.4.22l-.71-.67-.34.37-.7-.66.52-.56c.23-.24.49-.25.73-.02l.05.05.18.41.19-.2c-.33-.49-.46-1.07.2-1.78.74-.79,1.35-.47,1.61-.23.44.41.45.91-.15,1.76ZM61.14,58.67c-.41.44-.5.91-.19,1.2l.52-.73c.19-.27.27-.43.12-.56-.15-.14-.32-.04-.45.1Z" fill="#f40"/><path d="M57.25,61.06c.98-.82,1.73-.78,2.25-.16l-.84.71c-.17-.21-.47-.26-.91.11-.23.19-.32.36-.22.49.12.14.29.05.84-.17.63-.25,1.35-.63,1.85-.04.4.47.2,1.11-.53,1.72-.9.76-1.65.62-2.08.1l.84-.71c.16.19.42.21.71-.03.2-.17.27-.31.18-.41-.11-.13-.44.02-.97.23-.66.26-1.24.53-1.71-.02-.38-.45-.34-1.05.58-1.82Z" fill="#f40"/><path d="M56.39,66.2c-.9.59-1.88.48-2.46-.4l-.19-.29,2.2-1.45c-.22-.33-.62-.41-1.14-.06-.32.21-.49.49-.4.74l-.92.61c-.22-.46-.18-1.43.83-2.09,1.11-.73,2.1-.35,2.64.47.61.92.34,1.88-.56,2.48ZM54.94,65.46c.14.22.45.33.96,0s.52-.66.38-.88l-1.34.88Z" fill="#f40"/><path d="M48.73,66.16c1.62-.66,2.49-.24,2.95.89l-1.02.42c-.28-.69-.71-.76-1.6-.4-.66.27-.81.51-.71.75.13.33.74.25,1.49.2,1.08-.07,1.95-.13,2.31.75.31.76-.12,1.43-1.28,1.9-1.38.56-2.28.11-2.64-.78l1.02-.42c.22.55.71.53,1.26.3.46-.19.7-.41.61-.63-.08-.2-.22-.24-1.04-.18-.94.06-2.35.22-2.73-.72-.31-.77.01-1.52,1.39-2.08Z" fill="#f40"/><path d="M44,68.74l-.25-.93,1.71-.54c.36-.11.62.05.72.41l.52,1.93.8-.22.25.93-.8.22.17.63-.97.62-.26-.96-1.1.3-.25-.93,1.1-.3-.42-1.56-1.22.4Z" fill="#f40"/><path d="M41.02,70.47l.19,1.27-1.09.16-.51-3.44,1.09-.16.06.42-.11.64.27-.04c.05-.63.4-1.18,1.14-1.29.88-.13,1.5.38,1.65,1.44l.27,1.86-1.09.16-.25-1.69c-.09-.63-.31-.84-.83-.76-.59.09-.93.46-.79,1.42Z" fill="#f40"/><path d="M36.51,68.53v.21s-.19.62-.19.62h.28c.17-.47.49-.91,1.35-.92,1-.02,1.52.8,1.53,1.78.02.98-.47,1.81-1.48,1.82-.86.01-1.19-.42-1.38-.88h-.27s.22.62.22.62l.03,1.79-1.1.02-.08-5.05,1.1-.02ZM37.47,71.09c.59,0,.92-.27.91-.85,0-.58-.34-.84-.93-.83-.59,0-.92.27-.91.86s.34.83.93.82Z" fill="#f40"/><path d="M34.93,69.46l-.98-.1-.16,1.58.85.04-.1.96-1.31-.06c-.38-.02-.58-.25-.54-.63l.2-1.99-.98-.1.1-.96,3.01.3-.1.96ZM33.82,72.77c-.04.35-.29.52-.7.48-.4-.04-.64-.26-.6-.61.04-.36.31-.52.71-.48.4.04.62.26.59.61Z" fill="#f40"/><path d="M29.35,71.28c-1.06-.23-1.79-.99-1.54-2.17.25-1.19,1.22-1.59,2.29-1.36,1.07.23,1.79.99,1.54,2.18-.25,1.18-1.22,1.58-2.29,1.35ZM29.9,68.69c-.5-.11-.89.08-1.01.65-.12.57.16.89.66,1,.51.11.9-.08,1.02-.64.12-.57-.15-.9-.67-1.01Z" fill="#f40"/><path d="M25.13,68.63l-3.75-.12.07-.82,2.96.19-2.21-1.94.55-.62,2.71,2.56-.32.76Z" fill="#f40"/><path d="M16.64,67.92l5.06-4.03.52.65-5.06,4.03-.52-.65Z" fill="#f40"/><path d="M18.58,62.87l-.27.78-2.77-.98,1.61,2.49-.69.46-1.94-3.21.5-.65,3.56,1.12Z" fill="#f40"/></svg>